<?xml version="1.0" encoding="utf-8"?>
<!-- Generator: Adobe Illustrator 24.0.3, SVG Export Plug-In . SVG Version: 6.00 Build 0)  -->
<svg version="1.1" id="Layer_1" xmlns="http://www.w3.org/2000/svg" xmlns:xlink="http://www.w3.org/1999/xlink" x="0px" y="0px"
	 viewBox="0 0 75 75" style="enable-background:new 0 0 75 75;" xml:space="preserve">
<style type="text/css">
	.st0{fill:url(#Rectangle-2_1_);}
	.st1{fill:#FFFFFF;}
</style>
<g id="Types_Bug" transform="translate(15 15)">
	<g id="Group">
		<g transform="matrix(1, 0, 0, 1, -15, -15)">
			
				<linearGradient id="Rectangle-2_1_" gradientUnits="userSpaceOnUse" x1="-261.5444" y1="426.3778" x2="-261.5444" y2="424.7111" gradientTransform="matrix(45 0 0 -45 11807 19187)">
				<stop  offset="0" style="stop-color:#92BC2C"/>
				<stop  offset="1" style="stop-color:#AFC836"/>
			</linearGradient>
			<path id="Rectangle-2" class="st0" d="M37.5,0L37.5,0C58.2,0,75,16.8,75,37.5l0,0C75,58.2,58.2,75,37.5,75l0,0
				C16.8,75,0,58.2,0,37.5l0,0C0,16.8,16.8,0,37.5,0z"/>
		</g>
		<path id="Path_3" class="st1" d="M30.1,42.9L30.1,42.9c-2.9-3.1-4.9-6.8-5.9-10.9c-1.2-6,1.7-12.8,1.7-12.8
			c1.6-0.5,3.2-1.3,4.6-2.2c1.4-1.2,2.6-2.4,3.7-3.8c1.1,1,2.1,2.2,2.9,3.5c1.9,3.2,2.9,7,2.9,10.7c-0.2,4.3-1.9,8.3-5,11.4
			C33.6,40.4,31.9,41.7,30.1,42.9L30.1,42.9z M14.9,42.9L14.9,42.9c-1.8-1.1-3.5-2.5-5-4.1c-3-3-4.8-7.1-5-11.4
			c0-3.8,1-7.5,2.9-10.7c0.8-1.3,1.7-2.5,2.9-3.5c1.1,1.4,2.4,2.7,3.7,3.8c1.5,0.9,3,1.6,4.6,2.1c0.1,0.3,2.9,6.9,1.7,12.8
			C19.8,36.1,17.8,39.8,14.9,42.9L14.9,42.9z M22.9,16.8c-5.5,0-9.5-5.2-9.5-5.3c0,0,0,0,0,0c1.1-0.7,2.3-1.2,3.5-1.6l-3.3-3.9
			c-0.7-0.8-0.6-2,0.2-2.6c0.8-0.7,2-0.6,2.6,0.2l4.2,5c0.1,0.1,0.2,0.2,0.2,0.3c0.5-0.1,1-0.1,1.5-0.1c0.7,0,1.4,0.1,2.1,0.1
			c0-0.1,0.1-0.1,0.1-0.2l3.8-5.4C29,2.4,30.1,2.2,31,2.8c0.9,0.6,1.1,1.7,0.5,2.6c0,0,0,0-0.1,0.1l-3,4.3c1.1,0.4,2.2,0.8,3.3,1.3
			l0,0v0C31.4,11.7,28.1,16.8,22.9,16.8z"/>
	</g>
</g>
</svg>
