<svg xmlns="http://www.w3.org/2000/svg" xmlns:xlink="http://www.w3.org/1999/xlink" viewBox="0 0 75 75">
  <defs>
    <style>
      .cls-1 {
        fill: url(#linear-gradient);
      }

      .cls-2 {
        fill: #fff;
      }

      .cls-3 {
        filter: url(#Rectangle);
      }
    </style>
    <linearGradient id="linear-gradient" x1="0.5" x2="0.5" y2="1" gradientUnits="objectBoundingBox">
      <stop offset="0" stop-color="#92bc2c"/>
      <stop offset="1" stop-color="#afc836"/>
    </linearGradient>
    <filter id="Rectangle" x="0" y="0" width="75" height="75" filterUnits="userSpaceOnUse">
      <feOffset input="SourceAlpha"/>
      <feGaussianBlur stdDeviation="5" result="blur"/>
      <feFlood flood-color="#98c32f" flood-opacity="0.702"/>
      <feComposite operator="in" in2="blur"/>
      <feComposite in="SourceGraphic"/>
    </filter>
  </defs>
  <g id="Types_Bug" data-name="Types/Bug" transform="translate(15 15)">
    <g id="Group">
      <g class="cls-3" transform="matrix(1, 0, 0, 1, -15, -15)">
        <rect id="Rectangle-2" data-name="Rectangle" class="cls-1" width="45" height="45" rx="22.5" transform="translate(15 15)"/>
      </g>
      <path id="Path_3" data-name="Path 3" class="cls-2" d="M15.035,24.23h0A14.7,14.7,0,0,1,11.486,17.7C10.795,14.1,12.5,10.044,12.521,10a14.392,14.392,0,0,0,2.785-1.291,16.736,16.736,0,0,0,2.244-2.3A8.67,8.67,0,0,1,19.275,8.5,12.227,12.227,0,0,1,21,14.943a10.187,10.187,0,0,1-2.983,6.817,14.853,14.853,0,0,1-2.983,2.469Zm-9.07,0h0A14.842,14.842,0,0,1,2.982,21.76,10.188,10.188,0,0,1,0,14.943,12.385,12.385,0,0,1,1.725,8.5,8.613,8.613,0,0,1,3.451,6.412a16.78,16.78,0,0,0,2.242,2.3A14.422,14.422,0,0,0,8.479,10c.071.169,1.717,4.145,1.034,7.7a14.7,14.7,0,0,1-3.548,6.527ZM10.725,8.552c-3.306,0-5.7-3.13-5.721-3.162,0,0,.007-.006.017-.013A12.643,12.643,0,0,1,7.1,4.392L5.11,2.026A1.125,1.125,0,0,1,6.834.579l2.54,3.027a1.192,1.192,0,0,1,.13.19,7.835,7.835,0,0,1,.91-.054,9.609,9.609,0,0,1,1.282.089,1.351,1.351,0,0,1,.071-.116L14.032.479A1.125,1.125,0,1,1,15.874,1.77l-1.823,2.6a15.005,15.005,0,0,1,1.991.786h0l0,.006C15.829,5.513,13.886,8.552,10.725,8.552Z" transform="translate(12 10.502)"/>
    </g>
  </g>
</svg>
