<?xml version="1.0" encoding="utf-8"?>
<!-- Generator: Adobe Illustrator 24.0.3, SVG Export Plug-In . SVG Version: 6.00 Build 0)  -->
<svg version="1.1" id="Layer_1" xmlns="http://www.w3.org/2000/svg" xmlns:xlink="http://www.w3.org/1999/xlink" x="0px" y="0px"
	 viewBox="0 0 75 75" style="enable-background:new 0 0 75 75;" xml:space="preserve">
<style type="text/css">
	.st0{fill:url(#Rectangle-2_1_);}
	.st1{fill:#FFFFFF;}
</style>
<g id="Types_Dark" transform="translate(15 15)">
	<g id="Group">
		<g transform="matrix(1, 0, 0, 1, -15, -15)">
			
				<linearGradient id="Rectangle-2_1_" gradientUnits="userSpaceOnUse" x1="-261.5444" y1="426.3778" x2="-261.5444" y2="424.7328" gradientTransform="matrix(45 0 0 -45 11807 19187)">
				<stop  offset="0" style="stop-color:#595761"/>
				<stop  offset="1" style="stop-color:#6E7587"/>
			</linearGradient>
			<path id="Rectangle-2" class="st0" d="M37.5,0L37.5,0C58.2,0,75,16.8,75,37.5l0,0C75,58.2,58.2,75,37.5,75l0,0
				C16.8,75,0,58.2,0,37.5l0,0C0,16.8,16.8,0,37.5,0z"/>
		</g>
		<path id="Oval_7" class="st1" d="M22.5,40C12.8,40,5,32.2,5,22.5S12.8,5,22.5,5S40,12.8,40,22.5C40,32.2,32.2,40,22.5,40z
			 M22.7,9.4c-0.5,0-1,0-1.5,0.1c3.9,3.2,6.2,8,6.1,13c0.1,5.3-2.4,10.3-6.7,13.5c7.3,1.1,14.1-3.9,15.2-11.2
			c1.1-7.3-3.9-14.1-11.2-15.2C24.1,9.4,23.4,9.4,22.7,9.4z"/>
	</g>
</g>
</svg>
