<?xml version="1.0" encoding="utf-8"?>
<svg version="1.1" xmlns="http://www.w3.org/2000/svg" xmlns:xlink="http://www.w3.org/1999/xlink" x="0px" y="0px"
	 viewBox="0 0 75 75" style="enable-background:new 0 0 75 75;" xml:space="preserve">
<g id="Types_Dark">
	<path id="Oval_7" transform="translate(15 15)" fill="#fff" d="M22.5,40C12.8,40,5,32.2,5,22.5S12.8,5,22.5,5S40,12.8,40,22.5C40,32.2,32.2,40,22.5,40z
			M22.7,9.4c-0.5,0-1,0-1.5,0.1c3.9,3.2,6.2,8,6.1,13c0.1,5.3-2.4,10.3-6.7,13.5c7.3,1.1,14.1-3.9,15.2-11.2
		c1.1-7.3-3.9-14.1-11.2-15.2C24.1,9.4,23.4,9.4,22.7,9.4z"/>
</g>
</svg>
