<?xml version="1.0" encoding="utf-8"?>
<svg version="1.1" xmlns="http://www.w3.org/2000/svg" xmlns:xlink="http://www.w3.org/1999/xlink" x="0px" y="0px"
	 viewBox="0 0 75 75" style="enable-background:new 0 0 75 75;" xml:space="preserve">
<g id="Types_Dragon">
	<path id="Oval_8"  transform="translate(15 15)" fill="#fff" d="M23.7,42.5c-3.5,0-7-1.1-9.8-3.2c-2.8-2-4.8-4.9-5.8-8.1C8,31,7.9,30.7,7.9,30.5
			c-0.2-1.3-0.2-2.1,0-2.4c0-0.1,0.1-0.1,0.2-0.1c0,0,0.1,0,0.1,0c0.3,0.4,0.5,0.8,0.7,1.3l0,0c0.3,0.8,0.7,1.5,1,2.3
			c0.4,0.9,1.1,1.6,1.8,2.2h0c0,0,0,0,0,0c-0.1-0.3-0.3-0.6-0.5-0.9c-0.2-0.3-0.4-0.7-0.6-1c-0.4-0.7-0.6-1.3-0.5-1.5
			c0-0.1,0.1-0.1,0.2-0.1c0,0,0,0,0.1,0c0.3,0,0.9,0.7,1.5,1.4l0,0l0,0.1c0.3,0.4,0.6,0.8,0.9,1.1c0.6,0.7,1.3,1.3,2.1,1.6
			c0,0,0,0,0,0c0,0,0,0,0,0c0-0.1-0.2-0.5-0.5-0.9c-0.2-0.2-0.3-0.5-0.5-0.7l0,0v0c-0.3-0.6-0.6-1.1-0.3-1.2c0,0,0.1,0,0.2,0
			c0.4,0,0.9,0.5,1.4,1c0.1,0.1,0.1,0.1,0.2,0.2l0,0c0.4,0.4,0.8,0.7,0.9,0.7c0,0,0,0,0.1,0c0.1-0.1,0-0.4,0-0.6
			c-0.1-0.3-0.2-0.6-0.1-0.7c0.1-0.1,0.2-0.1,0.3-0.1h0c0.3,0.1,0.5,0.2,0.8,0.3l0,0c0.2,0.1,0.6,0.3,0.9,0.5
			c1.2,0.9,2.6,1.3,4.1,1.3c3.7,0,6.7-2.9,6.8-6.6c0-2.7-1.7-5.1-4.2-6.1c-0.1,0.4-0.4,0.7-0.7,0.9c-0.3,0.3-0.8,0.4-1.2,0.5
			c-0.2,0-0.4,0.1-0.8,0.1c-1.3,0.3-15.7,3.6-15.8,3.6c0,0-0.1,0-0.3,0c-0.5,0-0.9-0.1-1.3-0.4c-0.4-0.5,0.8-2.7,0.8-2.7
			c1.5-2.8,3.2-5.5,5-8.1c0.1-0.1,0.6-0.5,1.3-1c1.5-1.1,4.1-3,6.8-5.3c1.7-1.5,3.3-3.1,4.8-4.8c0.2-0.2,0.3-0.5,0.5-0.7
			C24.7,3,25,2.5,25.7,2.5c0.3,0,0.6,0.1,0.8,0.3c0.4,0.5,0.3,1.5,0.3,2.1v0c0,0.1,0,0.1,0,0.2c-0.4,1.5-1,2.9-1.6,4.4
			c-0.1,0.4-0.2,0.8-0.2,1.2c4.1,0.3,7.9,2.1,10.7,5.1c2.8,2.9,4.4,6.8,4.4,10.9C39.9,35.4,32.6,42.6,23.7,42.5z M16.9,16.1
			c-0.9,0.6-1.8,1.3-2.7,2c-0.7,0.8-1.4,1.6-2.1,2.5c0,0,0.1,0,0.2,0c1.3,0.1,2.5-0.3,3.5-1.1C16.7,18.6,17,17.4,16.9,16.1z"/>
</g>
</svg>
