<svg xmlns="http://www.w3.org/2000/svg" xmlns:xlink="http://www.w3.org/1999/xlink" viewBox="0 0 75 75">
  <defs>
    <style>
      .cls-1 {
        fill: url(#linear-gradient);
      }

      .cls-2 {
        fill: #fff;
      }

      .cls-3 {
        filter: url(#Rectangle);
      }
    </style>
    <linearGradient id="linear-gradient" x1="0.5" x2="0.5" y2="0.987" gradientUnits="objectBoundingBox">
      <stop offset="0" stop-color="#0c69c8"/>
      <stop offset="1" stop-color="#0180c7"/>
    </linearGradient>
    <filter id="Rectangle" x="0" y="0" width="75" height="75" filterUnits="userSpaceOnUse">
      <feOffset input="SourceAlpha"/>
      <feGaussianBlur stdDeviation="5" result="blur"/>
      <feFlood flood-color="#076dc0" flood-opacity="0.702"/>
      <feComposite operator="in" in2="blur"/>
      <feComposite in="SourceGraphic"/>
    </filter>
  </defs>
  <g id="Types_Dragon" data-name="Types/Dragon" transform="translate(15 15)">
    <g id="Group">
      <g class="cls-3" transform="matrix(1, 0, 0, 1, -15, -15)">
        <rect id="Rectangle-2" data-name="Rectangle" class="cls-1" width="45" height="45" rx="22.5" transform="translate(15 15)"/>
      </g>
      <path id="Oval_8" data-name="Oval 8" class="cls-2" d="M11.183,24a9.86,9.86,0,0,1-5.89-1.922A9.666,9.666,0,0,1,1.8,17.2a3.737,3.737,0,0,1-.075-.389c-.111-.809-.1-1.271.021-1.412a.126.126,0,0,1,.1-.049.218.218,0,0,1,.067.014,2.358,2.358,0,0,1,.409.794l0,0a14.306,14.306,0,0,0,.627,1.351,3.854,3.854,0,0,0,1.1,1.327H4.06a.016.016,0,0,0,.009-.013,1.7,1.7,0,0,0-.29-.528c-.13-.2-.267-.412-.383-.618-.244-.436-.349-.769-.289-.912a.131.131,0,0,1,.091-.078.133.133,0,0,1,.032,0c.192,0,.515.4.888.863l.017.022.029.036c.181.225.368.458.565.677a3.644,3.644,0,0,0,1.247.983.036.036,0,0,0,.018,0,.04.04,0,0,0,.019-.022c.019-.073-.114-.271-.283-.522-.09-.135-.193-.289-.279-.436l-.013-.021,0-.006c-.21-.356-.376-.637-.2-.743a.178.178,0,0,1,.092-.024c.213,0,.55.3.85.58.044.041.089.084.13.124l.026.024c.245.232.457.432.554.432a.052.052,0,0,0,.032-.011c.072-.062.023-.217-.024-.367s-.108-.336-.042-.442a.22.22,0,0,1,.167-.089h.02a1.259,1.259,0,0,1,.452.2l.01.005c.15.083.333.183.555.289a4.086,4.086,0,0,0,2.45.8,4.018,4.018,0,0,0,4.057-3.968,3.964,3.964,0,0,0-2.494-3.662,1.264,1.264,0,0,1-.411.537,1.433,1.433,0,0,1-.712.273c-.117.019-.263.044-.475.086-.771.156-9.409,2.137-9.5,2.157-.007,0-.072.006-.162.006a1.135,1.135,0,0,1-.756-.219c-.265-.27.481-1.615.489-1.629A48.212,48.212,0,0,1,3.539,7.765c.088-.086.37-.292.8-.6.923-.674,2.468-1.8,4.053-3.183A25.975,25.975,0,0,0,11.262,1.1a4.337,4.337,0,0,0,.289-.423C11.779.314,11.975,0,12.4,0a.611.611,0,0,1,.478.187c.266.3.2.886.16,1.239v.006c0,.033-.007.064-.01.092a23.006,23.006,0,0,1-.94,2.619,4.518,4.518,0,0,0-.13.709A9.861,9.861,0,0,1,18.365,7.89a9.439,9.439,0,0,1,2.622,6.521A9.71,9.71,0,0,1,11.183,24ZM7.1,8.177a16.839,16.839,0,0,0-1.6,1.2,15.63,15.63,0,0,0-1.244,1.507s.05,0,.141,0a3.206,3.206,0,0,0,2.1-.67A2.611,2.611,0,0,0,7.1,8.177Z" transform="translate(12.013 10.5)"/>
    </g>
  </g>
</svg>
