<?xml version="1.0" encoding="utf-8"?>
<!-- Generator: Adobe Illustrator 24.0.3, SVG Export Plug-In . SVG Version: 6.00 Build 0)  -->
<svg version="1.1" id="Layer_1" xmlns="http://www.w3.org/2000/svg" xmlns:xlink="http://www.w3.org/1999/xlink" x="0px" y="0px"
	 viewBox="0 0 75 75" style="enable-background:new 0 0 75 75;" xml:space="preserve">
<style type="text/css">
	.st0{fill:url(#Rectangle-2_1_);}
	.st1{fill:#FFFFFF;}
</style>
<g id="Types_Electric" transform="translate(15 15)">
	<g id="Group">
		<g transform="matrix(1, 0, 0, 1, -15, -15)">
			
				<linearGradient id="Rectangle-2_1_" gradientUnits="userSpaceOnUse" x1="-261.5444" y1="426.3778" x2="-261.5444" y2="424.7328" gradientTransform="matrix(45 0 0 -45 11807 19187)">
				<stop  offset="0" style="stop-color:#EDD53E"/>
				<stop  offset="1" style="stop-color:#FBE273"/>
			</linearGradient>
			<path id="Rectangle-2" class="st0" d="M37.5,0L37.5,0C58.2,0,75,16.8,75,37.5l0,0C75,58.2,58.2,75,37.5,75l0,0
				C16.8,75,0,58.2,0,37.5l0,0C0,16.8,16.8,0,37.5,0z"/>
		</g>
		<path id="Path_5" class="st1" d="M13.2,7.3c-0.2-0.6,0.1-1.2,0.7-1.4c0.1,0,0.2-0.1,0.4-0.1H26c0.5,0,0.9,0.3,1.1,0.8l5.8,18.7
			c0.2,0.6-0.1,1.2-0.7,1.4c-0.1,0-0.2,0-0.3,0h-7.2c-0.3,0-0.5,0.2-0.5,0.6c0,0.1,0,0.1,0,0.1l3.6,12.7c0.2,0.6-0.2,1.2-0.8,1.4
			c-0.4,0.1-0.9,0-1.2-0.4L9.7,19.7c-0.4-0.5-0.3-1.2,0.2-1.5c0.2-0.1,0.4-0.2,0.7-0.2h5.6c0.3,0,0.6-0.2,0.6-0.5c0-0.1,0-0.1,0-0.2
			L13.2,7.3z"/>
	</g>
</g>
</svg>
