<?xml version="1.0" encoding="utf-8"?>
<svg version="1.1" xmlns="http://www.w3.org/2000/svg" xmlns:xlink="http://www.w3.org/1999/xlink" x="0px" y="0px"
	 viewBox="0 0 75 75" style="enable-background:new 0 0 75 75;" xml:space="preserve">
<g id="Types_Electric">
	<path id="Path_5" transform="translate(15 15)" fill="#fff" d="M13.2,7.3c-0.2-0.6,0.1-1.2,0.7-1.4c0.1,0,0.2-0.1,0.4-0.1H26c0.5,0,0.9,0.3,1.1,0.8l5.8,18.7
			c0.2,0.6-0.1,1.2-0.7,1.4c-0.1,0-0.2,0-0.3,0h-7.2c-0.3,0-0.5,0.2-0.5,0.6c0,0.1,0,0.1,0,0.1l3.6,12.7c0.2,0.6-0.2,1.2-0.8,1.4
			c-0.4,0.1-0.9,0-1.2-0.4L9.7,19.7c-0.4-0.5-0.3-1.2,0.2-1.5c0.2-0.1,0.4-0.2,0.7-0.2h5.6c0.3,0,0.6-0.2,0.6-0.5c0-0.1,0-0.1,0-0.2
			L13.2,7.3z"/>
</g>
</svg>
