<svg xmlns="http://www.w3.org/2000/svg" xmlns:xlink="http://www.w3.org/1999/xlink" viewBox="0 0 75 75">
  <defs>
    <style>
      .cls-1 {
        fill: url(#linear-gradient);
      }

      .cls-2 {
        fill: #fff;
      }

      .cls-3 {
        filter: url(#Rectangle);
      }
    </style>
    <linearGradient id="linear-gradient" x1="0.5" x2="0.5" y2="0.984" gradientUnits="objectBoundingBox">
      <stop offset="0" stop-color="#ec8ce5"/>
      <stop offset="1" stop-color="#f3a7e7"/>
    </linearGradient>
    <filter id="Rectangle" x="0" y="0" width="75" height="75" filterUnits="userSpaceOnUse">
      <feOffset input="SourceAlpha"/>
      <feGaussianBlur stdDeviation="5" result="blur"/>
      <feFlood flood-color="#f294e9" flood-opacity="0.702"/>
      <feComposite operator="in" in2="blur"/>
      <feComposite in="SourceGraphic"/>
    </filter>
  </defs>
  <g id="Types_Fairy" data-name="Types/Fairy" transform="translate(15 15)">
    <g id="Group">
      <g class="cls-3" transform="matrix(1, 0, 0, 1, -15, -15)">
        <rect id="Rectangle-2" data-name="Rectangle" class="cls-1" width="45" height="45" rx="22.5" transform="translate(15 15)"/>
      </g>
      <path id="Star" class="cls-2" d="M11.251,22.5a.36.36,0,0,1-.32-.189L8.018,16.983l-3.113.9a.361.361,0,0,1-.393-.133.36.36,0,0,1-.056-.321l.9-3.039L.189,11.57a.364.364,0,0,1,0-.639L5.4,8.081l-.946-3.2a.359.359,0,0,1,.056-.32A.359.359,0,0,1,4.9,4.43l3.2.927L10.931.189a.364.364,0,0,1,.639,0L14.4,5.357l3.2-.927a.37.37,0,0,1,.1-.015.365.365,0,0,1,.29.147.36.36,0,0,1,.057.32l-.946,3.2,5.211,2.85a.364.364,0,0,1,0,.639l-5.164,2.824.9,3.039a.362.362,0,0,1-.057.321.366.366,0,0,1-.291.147.372.372,0,0,1-.1-.015l-3.112-.9L11.57,22.31A.359.359,0,0,1,11.251,22.5Zm.03-14.941a.361.361,0,0,0-.32.189L9.826,9.826,7.748,10.961a.364.364,0,0,0,0,.639l2.078,1.137,1.135,2.078a.361.361,0,0,0,.32.189.357.357,0,0,0,.319-.189l1.137-2.078L14.814,11.6a.364.364,0,0,0,0-.639L12.736,9.826,11.6,7.748A.358.358,0,0,0,11.281,7.559Z" transform="translate(11.25 11.289)"/>
    </g>
  </g>
</svg>
