<?xml version="1.0" encoding="utf-8"?>
<svg version="1.1" xmlns="http://www.w3.org/2000/svg" xmlns:xlink="http://www.w3.org/1999/xlink" x="0px" y="0px"
	 viewBox="0 0 75 75" style="enable-background:new 0 0 75 75;" xml:space="preserve">
<g id="Types_Fairy">
	<path id="Star" transform="translate(15 15)" fill="#fff" d="M22.5,41.3c-0.2,0-0.4-0.1-0.5-0.3l-4.9-8.9l-5.2,1.5c-0.2,0.1-0.5,0-0.7-0.2
		c-0.1-0.2-0.1-0.4-0.1-0.5l1.5-5.1l-8.6-4.7c-0.3-0.2-0.4-0.5-0.2-0.8C3.9,22.2,4,22.1,4.1,22l8.7-4.8l-1.6-5.3
		c-0.1-0.2,0-0.4,0.1-0.5c0.1-0.2,0.4-0.3,0.6-0.2l5.3,1.5L22,4.1c0.2-0.3,0.5-0.4,0.8-0.2C22.9,3.9,23,4,23,4.1l4.7,8.6l5.3-1.5
		c0.1,0,0.1,0,0.2,0c0.2,0,0.4,0.1,0.5,0.2c0.1,0.2,0.1,0.4,0.1,0.5l-1.6,5.3l8.7,4.7c0.3,0.2,0.4,0.5,0.2,0.8
		C41.1,23,41,23,40.9,23.1l-8.6,4.7l1.5,5.1c0.1,0.2,0,0.4-0.1,0.5c-0.1,0.2-0.3,0.2-0.5,0.2c-0.1,0-0.1,0-0.2,0l-5.2-1.5L23,41
		C22.9,41.2,22.7,41.3,22.5,41.3z M22.6,16.4c-0.2,0-0.4,0.1-0.5,0.3l-1.9,3.5l-3.5,1.9c-0.3,0.2-0.4,0.5-0.2,0.8
		c0.1,0.1,0.1,0.2,0.2,0.2l3.5,1.9l1.9,3.5c0.1,0.2,0.3,0.3,0.5,0.3c0.2,0,0.4-0.1,0.5-0.3L25,25l3.5-1.9c0.3-0.2,0.4-0.5,0.2-0.8
		c-0.1-0.1-0.1-0.2-0.2-0.2L25,20.2l-1.9-3.5C23,16.5,22.8,16.4,22.6,16.4z"/>
</g>
</svg>
