<svg xmlns="http://www.w3.org/2000/svg" xmlns:xlink="http://www.w3.org/1999/xlink" viewBox="0 0 75 75">
  <defs>
    <style>
      .cls-1 {
        fill: url(#linear-gradient);
      }

      .cls-2 {
        fill: #fff;
      }

      .cls-3 {
        filter: url(#Rectangle);
      }
    </style>
    <linearGradient id="linear-gradient" x1="0.5" x2="0.5" y2="0.987" gradientUnits="objectBoundingBox">
      <stop offset="0" stop-color="#ce4265"/>
      <stop offset="1" stop-color="#e74347"/>
    </linearGradient>
    <filter id="Rectangle" x="0" y="0" width="75" height="75" filterUnits="userSpaceOnUse">
      <feOffset input="SourceAlpha"/>
      <feGaussianBlur stdDeviation="5" result="blur"/>
      <feFlood flood-color="#d4445d" flood-opacity="0.702"/>
      <feComposite operator="in" in2="blur"/>
      <feComposite in="SourceGraphic"/>
    </filter>
  </defs>
  <g id="Types_Fight" data-name="Types/Fight" transform="translate(15 15)">
    <g id="Group">
      <g class="cls-3" transform="matrix(1, 0, 0, 1, -15, -15)">
        <rect id="Rectangle-2" data-name="Rectangle" class="cls-1" width="45" height="45" rx="22.5" transform="translate(15 15)"/>
      </g>
      <path id="Oval_9" data-name="Oval 9" class="cls-2" d="M10.5,22.5C4.71,22.5,0,18.21,0,12.938a9.085,9.085,0,0,1,2.881-6.58c-.006,3.325.07,5.011.227,5.012.579-.132.01-9.724,0-9.821l-.053.077A1.755,1.755,0,0,1,4.8,0H6.269A1.759,1.759,0,0,1,7.9,1.125H7.95A1.754,1.754,0,0,1,9.386.375H10.85a1.745,1.745,0,0,1,1.724,1.447A1.745,1.745,0,0,1,13.586,1.5H15.05a1.755,1.755,0,0,1,1.734,1.512,1.74,1.74,0,0,1,.684.23A2.4,2.4,0,0,1,18.518,3,2.515,2.515,0,0,1,21,5.482V13.02a9.106,9.106,0,0,1-3.105,6.706A10.979,10.979,0,0,1,10.5,22.5Z" transform="translate(12 11)"/>
    </g>
  </g>
</svg>
