<?xml version="1.0" encoding="utf-8"?>
<svg version="1.1" xmlns="http://www.w3.org/2000/svg" xmlns:xlink="http://www.w3.org/1999/xlink" x="0px" y="0px"
	 viewBox="0 0 75 75" style="enable-background:new 0 0 75 75;" xml:space="preserve">
<g id="Types_Fight">
	<path id="Oval_9" transform="translate(15 15)" fill="#fff" d="M22.5,42.5C12.9,42.5,5,35.3,5,26.6c0-4.2,1.8-8.1,4.8-11c0,5.5,0.1,8.4,0.4,8.4
			c1-0.2,0-16.2,0-16.4l-0.1,0.1C10.2,6.2,11.5,5,13,5h2.4c1.2,0,2.3,0.8,2.7,1.9h0.1c0.5-0.8,1.4-1.2,2.4-1.2h2.4
			c1.4,0,2.6,1,2.9,2.4c0.5-0.3,1.1-0.5,1.7-0.5h2.4c1.5,0,2.7,1.1,2.9,2.5c0.4,0,0.8,0.2,1.1,0.4c0.5-0.3,1.1-0.4,1.8-0.4
			c2.3,0,4.1,1.9,4.1,4.1v12.6c-0.1,4.3-1.9,8.3-5.2,11.2C31.4,40.9,27,42.5,22.5,42.5z"/>
</g>
</svg>
