<?xml version="1.0" encoding="utf-8"?>
<!-- Generator: Adobe Illustrator 24.0.3, SVG Export Plug-In . SVG Version: 6.00 Build 0)  -->
<svg version="1.1" id="Layer_1" xmlns="http://www.w3.org/2000/svg" xmlns:xlink="http://www.w3.org/1999/xlink" x="0px" y="0px"
	 viewBox="0 0 75 75" style="enable-background:new 0 0 75 75;" xml:space="preserve">
<style type="text/css">
	.st0{fill:url(#Rectangle-2_1_);}
	.st1{fill:#FFFFFF;}
</style>
<g id="Types_Fire" transform="translate(15 15)">
	<g id="Group">
		<g transform="matrix(1, 0, 0, 1, -15, -15)">
			
				<linearGradient id="Rectangle-2_1_" gradientUnits="userSpaceOnUse" x1="-261.5444" y1="426.3778" x2="-261.5444" y2="424.7111" gradientTransform="matrix(45 0 0 -45 11807 19187)">
				<stop  offset="0" style="stop-color:#FB9B51"/>
				<stop  offset="1" style="stop-color:#FBAE46"/>
			</linearGradient>
			<path id="Rectangle-2" class="st0" d="M37.5,0L37.5,0C58.2,0,75,16.8,75,37.5l0,0C75,58.2,58.2,75,37.5,75l0,0
				C16.8,75,0,58.2,0,37.5l0,0C0,16.8,16.8,0,37.5,0z"/>
		</g>
		<path id="Path_2" class="st1" d="M20.8,40.4c-3.5,0-6.8-1.4-9.2-4c-2.9-3-4.2-7.1-3.6-11.3c0.3-2,0.8-3.9,1.7-5.7
			c-0.1,0.6-0.2,1.3-0.2,1.9c0,0.7,0.2,1.3,0.6,1.8c0,0,0,0,0-0.1c0.8-1.8,1.8-3.4,3-4.9c1.3-1.3,2.6-2.4,4.1-3.4
			c0.9-0.6,1.7-1.3,2.5-2c2.9-3.3,1.2-9.4,1.1-9.4l0,0c0,0,0,0,0,0c2,1.8,3.5,4.2,4.3,6.8c0.3,1.5,0.2,3.1-0.1,4.6
			c-0.2,1.6-0.4,3,0.2,3.7c0.4,0.4,0.9,0.5,1.4,0.5c0.1,0,0.1,0,0.2,0c0.7,0,1.3-0.3,1.6-0.9c0.9-1.7-1.1-5.3-1.1-5.4l0,0
			c0,0,0,0,0,0c1.6,0.9,3,2,4.3,3.3c2.6,2.4,4,5.9,3.9,9.5c-0.3,3.3-2.2,6.3-5.1,8.1c-1.4,0.9-3,1.5-4.6,1.9c1.2-1,2.2-2.2,2.8-3.6
			c0.2-1.7,0-3.4-0.4-5.1c0,0,0,0,0,0c-0.3,1.4-0.8,2.7-1.6,3.8c-0.9,1-2.1,1.6-3.4,1.7c1.3-0.6,2.1-1.9,2.1-3.3
			c0-2.1-1.8-3.7-3.8-3.7c-2,0-3.6,1.7-3.7,3.7c0,0.5,0.1,1.1,0.3,1.6c-0.8-0.7-1.3-1.6-1.5-2.7c0,0.1-1.4,6,2.5,8.8
			c1.6,1,3.5,1.5,5.3,1.4c2.2,0,4.3-0.4,6.4-1c0,0,0,0,0,0C27.9,39.1,24.4,40.2,20.8,40.4z"/>
	</g>
</g>
</svg>
