<svg xmlns="http://www.w3.org/2000/svg" xmlns:xlink="http://www.w3.org/1999/xlink" viewBox="0 0 75 75">
  <defs>
    <style>
      .cls-1 {
        fill: url(#linear-gradient);
      }

      .cls-2 {
        fill: #fff;
      }

      .cls-3 {
        filter: url(#Rectangle);
      }
    </style>
    <linearGradient id="linear-gradient" x1="0.5" x2="0.5" y2="1" gradientUnits="objectBoundingBox">
      <stop offset="0" stop-color="#fb9b51"/>
      <stop offset="1" stop-color="#fbae46"/>
    </linearGradient>
    <filter id="Rectangle" x="0" y="0" width="75" height="75" filterUnits="userSpaceOnUse">
      <feOffset input="SourceAlpha"/>
      <feGaussianBlur stdDeviation="5" result="blur"/>
      <feFlood flood-color="#fe9e54" flood-opacity="0.702"/>
      <feComposite operator="in" in2="blur"/>
      <feComposite in="SourceGraphic"/>
    </filter>
  </defs>
  <g id="Types_Fire" data-name="Types/Fire" transform="translate(15 15)">
    <g id="Group">
      <g class="cls-3" transform="matrix(1, 0, 0, 1, -15, -15)">
        <rect id="Rectangle-2" data-name="Rectangle" class="cls-1" width="45" height="45" rx="22.5" transform="translate(15 15)"/>
      </g>
      <path id="Path_2" data-name="Path 2" class="cls-2" d="M7.737,22.221A7.43,7.43,0,0,1,2.23,19.836,7.979,7.979,0,0,1,.076,13.084,11.015,11.015,0,0,1,1.118,9.635,5.308,5.308,0,0,0,.982,10.8a2.091,2.091,0,0,0,.339,1.1.141.141,0,0,1,.015-.035A15.912,15.912,0,0,1,3.116,8.9,15.175,15.175,0,0,1,5.6,6.847a9.724,9.724,0,0,0,1.493-1.2C8.859,3.672,7.791.037,7.78,0h0s.007,0,.013.009A9.258,9.258,0,0,1,10.363,4.08a7.617,7.617,0,0,1-.047,2.765c-.135.974-.251,1.816.122,2.245a1.043,1.043,0,0,0,.835.3c.042,0,.085,0,.13,0a1.092,1.092,0,0,0,.979-.514c.558-1.014-.661-3.2-.673-3.221h0a.056.056,0,0,1,.018.008,12.146,12.146,0,0,1,2.588,2,7.337,7.337,0,0,1,2.31,5.671,6.241,6.241,0,0,1-3.054,4.83,9.291,9.291,0,0,1-2.755,1.166,6,6,0,0,0,1.689-2.165,8.352,8.352,0,0,0-.257-3.064.163.163,0,0,1,0,.023,6.073,6.073,0,0,1-.987,2.275,3.185,3.185,0,0,1-2.052,1,2.187,2.187,0,0,0,1.25-1.977,2.241,2.241,0,0,0-4.481,0,2.154,2.154,0,0,0,.209.931,2.689,2.689,0,0,1-.9-1.606c-.008.034-.827,3.615,1.517,5.276a5.5,5.5,0,0,0,3.208.817,14.768,14.768,0,0,0,3.837-.579s0,.006-.01.01A11.955,11.955,0,0,1,7.737,22.221Z" transform="translate(13.72 11)"/>
    </g>
  </g>
</svg>
