<?xml version="1.0" encoding="utf-8"?>
<svg version="1.1" xmlns="http://www.w3.org/2000/svg" xmlns:xlink="http://www.w3.org/1999/xlink" x="0px" y="0px"
	 viewBox="0 0 75 75" style="enable-background:new 0 0 75 75;" xml:space="preserve">
<g id="Types_Fire">
	<path id="Path_2" transform="translate(15 15)" fill="#fff" d="M20.8,40.4c-3.5,0-6.8-1.4-9.2-4c-2.9-3-4.2-7.1-3.6-11.3c0.3-2,0.8-3.9,1.7-5.7
		c-0.1,0.6-0.2,1.3-0.2,1.9c0,0.7,0.2,1.3,0.6,1.8c0,0,0,0,0-0.1c0.8-1.8,1.8-3.4,3-4.9c1.3-1.3,2.6-2.4,4.1-3.4
		c0.9-0.6,1.7-1.3,2.5-2c2.9-3.3,1.2-9.4,1.1-9.4l0,0c0,0,0,0,0,0c2,1.8,3.5,4.2,4.3,6.8c0.3,1.5,0.2,3.1-0.1,4.6
		c-0.2,1.6-0.4,3,0.2,3.7c0.4,0.4,0.9,0.5,1.4,0.5c0.1,0,0.1,0,0.2,0c0.7,0,1.3-0.3,1.6-0.9c0.9-1.7-1.1-5.3-1.1-5.4l0,0
		c0,0,0,0,0,0c1.6,0.9,3,2,4.3,3.3c2.6,2.4,4,5.9,3.9,9.5c-0.3,3.3-2.2,6.3-5.1,8.1c-1.4,0.9-3,1.5-4.6,1.9c1.2-1,2.2-2.2,2.8-3.6
		c0.2-1.7,0-3.4-0.4-5.1c0,0,0,0,0,0c-0.3,1.4-0.8,2.7-1.6,3.8c-0.9,1-2.1,1.6-3.4,1.7c1.3-0.6,2.1-1.9,2.1-3.3
		c0-2.1-1.8-3.7-3.8-3.7c-2,0-3.6,1.7-3.7,3.7c0,0.5,0.1,1.1,0.3,1.6c-0.8-0.7-1.3-1.6-1.5-2.7c0,0.1-1.4,6,2.5,8.8
		c1.6,1,3.5,1.5,5.3,1.4c2.2,0,4.3-0.4,6.4-1c0,0,0,0,0,0C27.9,39.1,24.4,40.2,20.8,40.4z"/>
</g>
</svg>
