<?xml version="1.0" encoding="utf-8"?>
<svg version="1.1" xmlns="http://www.w3.org/2000/svg" xmlns:xlink="http://www.w3.org/1999/xlink" x="0px" y="0px"
	 viewBox="0 0 75 75" style="enable-background:new 0 0 75 75;" xml:space="preserve">
<g id="Types_Flying">
	<path id="Oval_2" transform="translate(15 15)" fill="#fff" d="M18.1,38.3c5.1,0.1,9.9-2.8,12.1-7.4c0-0.1-7.8,2-7.5,1.3c0.1-0.3,4.9-2.1,8.4-4.1
		c1.3-0.9,2.3-2.2,2.9-3.7c-1.6,0.8-3.3,1.5-5.1,2.1c-2.1,0.6-4.3,0.8-6.5,0.7c4.2-1.3,8.3-3.1,12-5.4c2-1.3,3.5-3.2,4.2-5.5
		c-1.9,1.1-3.8,2.1-5.8,2.9c-3.2,1.2-6.5,1.8-9.9,2c0-0.5,4.2-1.6,8.6-3.8c2.3-1.2,4.5-2.6,6.6-4.2c2.3-1.8,3.9-4.4,4.4-7.4
		C40.7,7,38.9,8.1,37,9c-6,2.8-12.3,4.6-18.9,5.4C10.9,15,5,20,5,26.5S10.9,38.3,18.1,38.3z"/>
</g>
</svg>
