<?xml version="1.0" encoding="utf-8"?>
<svg version="1.1" xmlns="http://www.w3.org/2000/svg" xmlns:xlink="http://www.w3.org/1999/xlink" x="0px" y="0px"
	 viewBox="0 0 75 75" style="enable-background:new 0 0 75 75;" xml:space="preserve">
<g id="Types_Ghost">
	<path id="Oval_10" transform="translate(15 15)" fill="#fff" d="M22.2,39.9c-4.6-0.6-8.9-2.6-12.2-5.8C6.8,31,5,26.6,5,22.1C5.1,12.6,12.9,4.9,22.5,5
		c9.6-0.1,17.4,7.6,17.5,17.1c0,4.2-1.6,8.3-4.5,11.5c-0.2,0.2-0.3,0.4-0.3,0.6c0.1,0.5,0.8,0.9,1.6,1.3c0.7,0.4,1.5,0.8,1.6,1.4
		c0,0.2,0,0.4-0.2,0.6c-0.7,0.9-4.3,2.1-8.1,2.3C28.7,40,27,40,25.5,40C24.4,40,23.3,40,22.2,39.9z M27.1,22.7
		c1.5,0,2.7-1.2,2.7-2.7c0-1-0.5-1.8-1.4-2.3v0.7c0,0.9-0.7,1.6-1.6,1.6h-2.5C24.4,21.5,25.7,22.7,27.1,22.7L27.1,22.7z M14.6,20
		c0,1.5,1.3,2.7,2.8,2.7c1.5,0,2.6-1.2,2.7-2.7h-2.5c-0.9,0-1.6-0.7-1.6-1.6c0,0,0,0,0,0v-0.7C15.1,18.2,14.6,19,14.6,20z"/>
</g>
</svg>
