<svg xmlns="http://www.w3.org/2000/svg" xmlns:xlink="http://www.w3.org/1999/xlink" viewBox="0 0 75 75">
  <defs>
    <style>
      .cls-1 {
        fill: url(#linear-gradient);
      }

      .cls-2 {
        fill: #fff;
      }

      .cls-3 {
        filter: url(#Rectangle);
      }
    </style>
    <linearGradient id="linear-gradient" x1="0.5" x2="0.5" y2="0.987" gradientUnits="objectBoundingBox">
      <stop offset="0" stop-color="#516aac"/>
      <stop offset="1" stop-color="#7773d4"/>
    </linearGradient>
    <filter id="Rectangle" x="0" y="0" width="75" height="75" filterUnits="userSpaceOnUse">
      <feOffset input="SourceAlpha"/>
      <feGaussianBlur stdDeviation="5" result="blur"/>
      <feFlood flood-color="#656cc6" flood-opacity="0.702"/>
      <feComposite operator="in" in2="blur"/>
      <feComposite in="SourceGraphic"/>
    </filter>
  </defs>
  <g id="Types_Ghost" data-name="Types/Ghost" transform="translate(15 15)">
    <g id="Group">
      <g class="cls-3" transform="matrix(1, 0, 0, 1, -15, -15)">
        <rect id="Rectangle-2" data-name="Rectangle" class="cls-1" width="45" height="45" rx="22.5" transform="translate(15 15)"/>
      </g>
      <path id="Oval_10" data-name="Oval 10" class="cls-2" d="M10.333,20.928a12.746,12.746,0,0,1-7.322-3.474A9.927,9.927,0,0,1,0,10.287,10.407,10.407,0,0,1,10.5,0,10.407,10.407,0,0,1,21,10.287a10.148,10.148,0,0,1-2.689,6.873.457.457,0,0,0-.151.386c.049.3.509.561.953.808s.914.509.984.825a.451.451,0,0,1-.1.373c-.4.551-2.57,1.256-4.865,1.375-.916.047-1.922.073-2.834.073A18.322,18.322,0,0,1,10.333,20.928Zm2.957-10.319A1.626,1.626,0,0,0,14.929,9a1.6,1.6,0,0,0-.82-1.391v.427A.965.965,0,0,1,13.145,9h-1.5A1.627,1.627,0,0,0,13.289,10.608ZM5.742,9A1.641,1.641,0,0,0,9.023,9h-1.5a.964.964,0,0,1-.964-.965V7.609A1.6,1.6,0,0,0,5.742,9Z" transform="translate(12 12)"/>
    </g>
  </g>
</svg>
