<?xml version="1.0" encoding="utf-8"?>
<svg version="1.1" xmlns="http://www.w3.org/2000/svg" xmlns:xlink="http://www.w3.org/1999/xlink" x="0px" y="0px"
	 viewBox="0 0 75 75" style="enable-background:new 0 0 75 75;" xml:space="preserve">
<g id="Types_Grass">
	<path id="Oval" transform="translate(15 15)" fill="#fff" d="M9.5,35.3c-6-6-6-15.7,0-21.6c1.7-1.7,5.6-4,14.7-5.4c3.4-0.5,6.8-0.8,10.3-0.9c0,0,0,0,0,0
		c0.4,3.9,0.6,7.8,0.5,11.7c-0.1,5.7-0.8,13.2-3.9,16.2c-5.2,5.2-13.4,6-19.5,1.8l4.8-5.9l7.7-1.7l-6.3-0.6l4-4.1l4.5-1l-3.6-1.1
		l3.6-6.5l-5.1,5.7l-2-2.8l0.7,4.6l-3.6,4l-1.6-5.1v6.7l-5,6.1l0,0L9.5,35.3z"/>
</g>
</svg>
