<?xml version="1.0" encoding="utf-8"?>
<svg version="1.1" xmlns="http://www.w3.org/2000/svg" xmlns:xlink="http://www.w3.org/1999/xlink" x="0px" y="0px"
	 viewBox="0 0 75 75" style="enable-background:new 0 0 75 75;" xml:space="preserve">
<g id="Types_Ground">
	<path id="Path_6" transform="translate(15 15)" fill="#fff" d="M4.2,36.7c-0.3,0-0.5-0.2-0.5-0.5c0-0.1,0-0.1,0-0.2l6.8-18.3c0.1-0.2,0.3-0.3,0.5-0.3h5.2
		c0.3,0,0.5,0.2,0.5,0.5c0,0.1,0,0.1,0,0.2l-6.6,18.3c-0.1,0.2-0.3,0.3-0.5,0.3H4.2z M12.2,36.6H12c-0.1,0-0.1-0.1-0.1-0.1
		l9.5-26.9c0.1-0.2,0.3-0.3,0.5-0.3h9.6c0.2,0,0.4,0.1,0.5,0.3l9.2,26.4c0.1,0.3,0,0.5-0.3,0.6c-0.1,0-0.1,0-0.2,0L12.2,36.6
		L12.2,36.6z"/>
</g>
</svg>
