<svg xmlns="http://www.w3.org/2000/svg" xmlns:xlink="http://www.w3.org/1999/xlink" viewBox="0 0 75 75">
  <defs>
    <style>
      .cls-1 {
        fill: url(#linear-gradient);
      }

      .cls-2 {
        fill: #fff;
      }

      .cls-3 {
        filter: url(#Rectangle);
      }
    </style>
    <linearGradient id="linear-gradient" x1="0.5" x2="0.5" y2="0.987" gradientUnits="objectBoundingBox">
      <stop offset="0" stop-color="#dc7545"/>
      <stop offset="1" stop-color="#d29463"/>
    </linearGradient>
    <filter id="Rectangle" x="0" y="0" width="75" height="75" filterUnits="userSpaceOnUse">
      <feOffset input="SourceAlpha"/>
      <feGaussianBlur stdDeviation="5" result="blur"/>
      <feFlood flood-color="#d88255" flood-opacity="0.702"/>
      <feComposite operator="in" in2="blur"/>
      <feComposite in="SourceGraphic"/>
    </filter>
  </defs>
  <g id="Types_Ground" data-name="Types/Ground" transform="translate(15 15)">
    <g id="Group">
      <g class="cls-3" transform="matrix(1, 0, 0, 1, -15, -15)">
        <rect id="Rectangle-2" data-name="Rectangle" class="cls-1" width="45" height="45" rx="22.5" transform="translate(15 15)"/>
      </g>
      <path id="Path_6" data-name="Path 6" class="cls-2" d="M.3,16.5a.3.3,0,0,1-.283-.408L4.127,5.126a.3.3,0,0,1,.282-.2h3.14a.3.3,0,0,1,.283.405L3.861,16.3a.3.3,0,0,1-.283.2Zm4.756-.063H4.964a.077.077,0,0,1-.062-.089L10.617.2A.3.3,0,0,1,10.9,0h5.789a.3.3,0,0,1,.285.2l5.52,15.833a.3.3,0,0,1-.285.4H5.059Z" transform="translate(11.244 14.5)"/>
    </g>
  </g>
</svg>
