<?xml version="1.0" encoding="utf-8"?>
<svg version="1.1" xmlns="http://www.w3.org/2000/svg" xmlns:xlink="http://www.w3.org/1999/xlink" x="0px" y="0px"
	 viewBox="0 0 75 75" style="enable-background:new 0 0 75 75;" xml:space="preserve">
<g id="Types_Ice">
	<g id="Group_2" transform="translate(25 25)" fill="#fff">
		<path id="Polygon" d="M23-5.2l0.1,11.4l-10,4.8L13,0.2L23-5.2z"/>
		<path id="Polygon-2" d="M33,12.8l-9.9,5.6l-9.9-5.7l9.9-5.2L33,12.8z"/>
		<path id="Polygon_Copy" d="M11.5,12.8l-9.9,5.6l-9.9-5.7l9.9-5.2L11.5,12.8z"/>
		<path id="Polygon-3" d="M1.5-5.3l10.3,5.1l-0.3,11.1L1.8,6.1L1.5-5.3z"/>
		<path id="Polygon-4" d="M23.3,30.7L13,25.6l0.3-11.1l9.7,4.8L23.3,30.7z"/>
		<path id="Polygon-5" d="M1.8,30.8L1.7,19.4l10-4.8l0.1,10.8L1.8,30.8z"/>
	</g>
</g>
</svg>
