<?xml version="1.0" encoding="utf-8"?>
<!-- Generator: Adobe Illustrator 24.0.3, SVG Export Plug-In . SVG Version: 6.00 Build 0)  -->
<svg version="1.1" id="Layer_1" xmlns="http://www.w3.org/2000/svg" xmlns:xlink="http://www.w3.org/1999/xlink" x="0px" y="0px"
	 viewBox="0 0 75 75" style="enable-background:new 0 0 75 75;" xml:space="preserve">
<style type="text/css">
	.st0{fill:url(#Rectangle-2_1_);}
	.st1{fill:#FFFFFF;}
</style>
<g id="Types_Ice" transform="translate(15 15)">
	<g id="Group">
		<g transform="matrix(1, 0, 0, 1, -15, -15)">
			
				<linearGradient id="Rectangle-2_1_" gradientUnits="userSpaceOnUse" x1="-261.5444" y1="426.3778" x2="-261.5444" y2="424.7111" gradientTransform="matrix(45 0 0 -45 11807 19187)">
				<stop  offset="0" style="stop-color:#70CCBD"/>
				<stop  offset="1" style="stop-color:#8CDDD4"/>
			</linearGradient>
			<path id="Rectangle-2" class="st0" d="M37.5,0L37.5,0C58.2,0,75,16.8,75,37.5l0,0C75,58.2,58.2,75,37.5,75l0,0
				C16.8,75,0,58.2,0,37.5l0,0C0,16.8,16.8,0,37.5,0z"/>
		</g>
		<g id="Group_2" transform="translate(9.904 9.816)">
			<path id="Polygon" class="st1" d="M23-5.2l0.1,11.4l-10,4.8L13,0.2L23-5.2z"/>
			<path id="Polygon-2" class="st1" d="M33,12.8l-9.9,5.6l-9.9-5.7l9.9-5.2L33,12.8z"/>
			<path id="Polygon_Copy" class="st1" d="M11.5,12.8l-9.9,5.6l-9.9-5.7l9.9-5.2L11.5,12.8z"/>
			<path id="Polygon-3" class="st1" d="M1.5-5.3l10.3,5.1l-0.3,11.1L1.8,6.1L1.5-5.3z"/>
			<path id="Polygon-4" class="st1" d="M23.3,30.7L13,25.6l0.3-11.1l9.7,4.8L23.3,30.7z"/>
			<path id="Polygon-5" class="st1" d="M1.8,30.8L1.7,19.4l10-4.8l0.1,10.8L1.8,30.8z"/>
		</g>
	</g>
</g>
</svg>
