<?xml version="1.0" encoding="utf-8"?>
<svg version="1.1" xmlns="http://www.w3.org/2000/svg" xmlns:xlink="http://www.w3.org/1999/xlink" x="0px" y="0px"
	 viewBox="0 0 75 75" style="enable-background:new 0 0 75 75;" xml:space="preserve">
<g id="Types_Poison">
	<path id="Oval_3" transform="translate(15 15)" fill="#fff" d="M30,40.8c-1.7-0.1-3.2-1.1-3.9-2.6c-0.7,1.5-2.2,2.6-3.9,2.6c-1.9-0.1-3.5-1.4-4.2-3.1
		c-0.7,1.8-2.3,3-4.2,3.1c-2.7,0-4.9-3-4.9-6.6c0-0.8,0.1-1.6,0.3-2.4c-3.6-2.9-5.7-7.3-5.8-11.9c0-9.1,8.4-16.5,18.8-16.5
		s18.7,7.4,18.7,16.5c-0.1,4.8-2.3,9.3-6.2,12.3c0.2,0.7,0.2,1.4,0.2,2.1C34.9,37.9,32.7,40.8,30,40.8z M21.8,11.8
		c-6.1,0-11.1,3.8-11.1,8.4s5,8.4,11.1,8.4s11.1-3.8,11.1-8.4S28,11.8,21.8,11.8z"/>
</g>
</svg>
