<?xml version="1.0" encoding="utf-8"?>
<!-- Generator: Adobe Illustrator 24.0.3, SVG Export Plug-In . SVG Version: 6.00 Build 0)  -->
<svg version="1.1" id="Layer_1" xmlns="http://www.w3.org/2000/svg" xmlns:xlink="http://www.w3.org/1999/xlink" x="0px" y="0px"
	 viewBox="0 0 75 75" style="enable-background:new 0 0 75 75;" xml:space="preserve">
<style type="text/css">
	.st0{fill:url(#Rectangle-2_1_);}
	.st1{fill:#FFFFFF;}
</style>
<g id="Types_Poison" transform="translate(15 15)">
	<g id="Group">
		<g transform="matrix(1, 0, 0, 1, -15, -15)">
			
				<linearGradient id="Rectangle-2_1_" gradientUnits="userSpaceOnUse" x1="-261.5444" y1="426.3778" x2="-261.5444" y2="424.7111" gradientTransform="matrix(45 0 0 -45 11807 19187)">
				<stop  offset="0" style="stop-color:#A864C7"/>
				<stop  offset="1" style="stop-color:#C261D4"/>
			</linearGradient>
			<path id="Rectangle-2" class="st0" d="M37.5,0L37.5,0C58.2,0,75,16.8,75,37.5l0,0C75,58.2,58.2,75,37.5,75l0,0
				C16.8,75,0,58.2,0,37.5l0,0C0,16.8,16.8,0,37.5,0z"/>
		</g>
		<path id="Oval_3" class="st1" d="M30,40.8c-1.7-0.1-3.2-1.1-3.9-2.6c-0.7,1.5-2.2,2.6-3.9,2.6c-1.9-0.1-3.5-1.4-4.2-3.1
			c-0.7,1.8-2.3,3-4.2,3.1c-2.7,0-4.9-3-4.9-6.6c0-0.8,0.1-1.6,0.3-2.4c-3.6-2.9-5.7-7.3-5.8-11.9c0-9.1,8.4-16.5,18.8-16.5
			s18.7,7.4,18.7,16.5c-0.1,4.8-2.3,9.3-6.2,12.3c0.2,0.7,0.2,1.4,0.2,2.1C34.9,37.9,32.7,40.8,30,40.8z M21.8,11.8
			c-6.1,0-11.1,3.8-11.1,8.4s5,8.4,11.1,8.4s11.1-3.8,11.1-8.4S28,11.8,21.8,11.8z"/>
	</g>
</g>
</svg>
