<?xml version="1.0" encoding="utf-8"?>
<svg version="1.1" xmlns="http://www.w3.org/2000/svg" xmlns:xlink="http://www.w3.org/1999/xlink" x="0px" y="0px"
	 viewBox="0 0 75 75" style="enable-background:new 0 0 75 75;" xml:space="preserve">
<g id="Types_Psychic">
	<path id="Path_9" transform="translate(15 15)" fill="#fff" d="M36.2,34.1c0,0-4.4,3.5-13.2,2.1c-6.7-1.1-10.2-8.5-10.2-12.4c0-9.4,6.9-11.5,11.6-11.5
		s7.7,4.6,7.7,8.1c0.1,3.5-2.6,6.5-6.1,6.6c-0.1,0-0.2,0-0.3,0c-2.6,0.2-4.9-1.7-5.1-4.3c0-0.3,0-0.6,0-0.9c0-1.9,1.5-3.4,3.4-3.4
		c0.1,0,0.3,0,0.4,0c1.9,0,2.5,1.6,2.5,2.9c0,1-0.7,1.8-1.7,1.9c-0.1,0-0.1,0-0.2,0c-0.9,0-1-0.4-1.3-0.9S24.3,20,23,20
		s-1.5,2-1.5,2c0.2,2.2,2,3.8,4.2,3.9c2.7,0.2,5-1.9,5.2-4.6c0-0.4,0-0.9-0.1-1.3c-0.8-3.8-4.5-6.1-8.3-5.3
		c-4.9,0.6-6.9,5.6-6.1,10.9s7.3,8.4,12.3,7.3c5-1.1,10-4.7,10-13.9s-8-14.7-17.5-13.8s-15.4,9.2-15,19.2
		c0.4,10,9.8,15.4,17.9,15.7c4.7,0.2,9.3-1.4,12.9-4.4c0,0,1.1-1,0.7-1.8S36.2,34.1,36.2,34.1z"/>
</g>
</svg>
