<svg xmlns="http://www.w3.org/2000/svg" xmlns:xlink="http://www.w3.org/1999/xlink" viewBox="0 0 75 75">
  <defs>
    <style>
      .cls-1 {
        fill: url(#linear-gradient);
      }

      .cls-2 {
        fill: #fff;
      }

      .cls-3 {
        filter: url(#Rectangle);
      }
    </style>
    <linearGradient id="linear-gradient" x1="0.5" x2="0.5" y2="1" gradientUnits="objectBoundingBox">
      <stop offset="0" stop-color="#c5b489"/>
      <stop offset="1" stop-color="#d7cd90"/>
    </linearGradient>
    <filter id="Rectangle" x="0" y="0" width="75" height="75" filterUnits="userSpaceOnUse">
      <feOffset input="SourceAlpha"/>
      <feGaussianBlur stdDeviation="5" result="blur"/>
      <feFlood flood-color="#cbc194" flood-opacity="0.702"/>
      <feComposite operator="in" in2="blur"/>
      <feComposite in="SourceGraphic"/>
    </filter>
  </defs>
  <g id="Types_Rock" data-name="Types/Rock" transform="translate(15 15)">
    <g id="Group">
      <g class="cls-3" transform="matrix(1, 0, 0, 1, -15, -15)">
        <rect id="Rectangle-2" data-name="Rectangle" class="cls-1" width="45" height="45" rx="22.5" transform="translate(15 15)"/>
      </g>
      <path id="Path_8" data-name="Path 8" class="cls-2" d="M11.363,16.457l-4.872-1.6,8.5-5.816a.274.274,0,0,1,.382.073L17.31,12a.273.273,0,0,1-.067.375l-5.634,4.042a.273.273,0,0,1-.16.051A.28.28,0,0,1,11.363,16.457ZM4.458,14.438l-4.269-1.4A.273.273,0,0,1,0,12.782V8.4a.274.274,0,0,1,.063-.175L6.766.136a.275.275,0,0,1,.211-.1h8.629a.274.274,0,0,1,.271.315L14.842,7.294a.269.269,0,0,1-.115.185L4.7,14.4a.274.274,0,0,1-.156.049A.268.268,0,0,1,4.458,14.438ZM18.6,11.061,16.281,7.9a.276.276,0,0,1-.05-.209L17.511.228A.274.274,0,0,1,17.781,0h0a.274.274,0,0,1,.262.192l2.9,9.173a.272.272,0,0,1-.093.3l-1.858,1.451a.273.273,0,0,1-.39-.054Z" transform="translate(12 14)"/>
    </g>
  </g>
</svg>
