<?xml version="1.0" encoding="utf-8"?>
<svg version="1.1" xmlns="http://www.w3.org/2000/svg" xmlns:xlink="http://www.w3.org/1999/xlink" x="0px" y="0px"
	 viewBox="0 0 75 75" style="enable-background:new 0 0 75 75;" xml:space="preserve">
<g id="Types_Rock">
	<path id="Path_8" transform="translate(15 15)" fill="#fff" d="M23.9,35.8l-8.1-2.7L30,23.4c0.2-0.1,0.5-0.1,0.6,0.1c0,0,0,0,0,0l3.2,4.8
		c0.1,0.2,0.1,0.5-0.1,0.6l-9.4,6.7c-0.1,0.1-0.2,0.1-0.3,0.1C24,35.8,24,35.8,23.9,35.8z M12.4,32.4l-7.1-2.3
		C5.1,30,5,29.8,5,29.6v-7.3c0-0.1,0-0.2,0.1-0.3L16.3,8.6c0.1-0.1,0.2-0.2,0.4-0.2H31c0.3,0,0.5,0.2,0.5,0.5c0,0,0,0,0,0.1
		l-1.7,11.6c0,0.1-0.1,0.2-0.2,0.3L12.8,32.3c-0.1,0.1-0.2,0.1-0.3,0.1C12.5,32.4,12.5,32.4,12.4,32.4z M36,26.8l-3.9-5.3
		c-0.1-0.1-0.1-0.2-0.1-0.3l2.1-12.4c0-0.2,0.2-0.4,0.5-0.4l0,0c0.2,0,0.4,0.1,0.4,0.3l4.8,15.3c0.1,0.2,0,0.4-0.2,0.5l-3.1,2.4
		C36.5,27,36.2,27,36,26.8C36,26.8,36,26.8,36,26.8L36,26.8z"/>
</g>
</svg>
