<?xml version="1.0" encoding="utf-8"?>
<!-- Generator: Adobe Illustrator 24.0.3, SVG Export Plug-In . SVG Version: 6.00 Build 0)  -->
<svg version="1.1" id="Layer_1" xmlns="http://www.w3.org/2000/svg" xmlns:xlink="http://www.w3.org/1999/xlink" x="0px" y="0px"
	 viewBox="0 0 75 75" style="enable-background:new 0 0 75 75;" xml:space="preserve">
<style type="text/css">
	.st0{fill:url(#Rectangle-2_1_);}
	.st1{fill:#FFFFFF;}
</style>
<g id="Types_Rock" transform="translate(15 15)">
	<g id="Group">
		<g transform="matrix(1, 0, 0, 1, -15, -15)">
			
				<linearGradient id="Rectangle-2_1_" gradientUnits="userSpaceOnUse" x1="-261.5444" y1="426.3778" x2="-261.5444" y2="424.7111" gradientTransform="matrix(45 0 0 -45 11807 19187)">
				<stop  offset="0" style="stop-color:#C5B489"/>
				<stop  offset="1" style="stop-color:#D7CD90"/>
			</linearGradient>
			<path id="Rectangle-2" class="st0" d="M37.5,0L37.5,0C58.2,0,75,16.8,75,37.5l0,0C75,58.2,58.2,75,37.5,75l0,0
				C16.8,75,0,58.2,0,37.5l0,0C0,16.8,16.8,0,37.5,0z"/>
		</g>
		<path id="Path_8" class="st1" d="M23.9,35.8l-8.1-2.7L30,23.4c0.2-0.1,0.5-0.1,0.6,0.1c0,0,0,0,0,0l3.2,4.8
			c0.1,0.2,0.1,0.5-0.1,0.6l-9.4,6.7c-0.1,0.1-0.2,0.1-0.3,0.1C24,35.8,24,35.8,23.9,35.8z M12.4,32.4l-7.1-2.3
			C5.1,30,5,29.8,5,29.6v-7.3c0-0.1,0-0.2,0.1-0.3L16.3,8.6c0.1-0.1,0.2-0.2,0.4-0.2H31c0.3,0,0.5,0.2,0.5,0.5c0,0,0,0,0,0.1
			l-1.7,11.6c0,0.1-0.1,0.2-0.2,0.3L12.8,32.3c-0.1,0.1-0.2,0.1-0.3,0.1C12.5,32.4,12.5,32.4,12.4,32.4z M36,26.8l-3.9-5.3
			c-0.1-0.1-0.1-0.2-0.1-0.3l2.1-12.4c0-0.2,0.2-0.4,0.5-0.4l0,0c0.2,0,0.4,0.1,0.4,0.3l4.8,15.3c0.1,0.2,0,0.4-0.2,0.5l-3.1,2.4
			C36.5,27,36.2,27,36,26.8C36,26.8,36,26.8,36,26.8L36,26.8z"/>
	</g>
</g>
</svg>
