<?xml version="1.0" encoding="utf-8"?>
<!-- Generator: Adobe Illustrator 24.0.3, SVG Export Plug-In . SVG Version: 6.00 Build 0)  -->
<svg version="1.1" id="Layer_1" xmlns="http://www.w3.org/2000/svg" xmlns:xlink="http://www.w3.org/1999/xlink" x="0px" y="0px"
	 viewBox="0 0 75 75" style="enable-background:new 0 0 75 75;" xml:space="preserve">
<style type="text/css">
	.st0{fill:url(#Rectangle-2_1_);}
	.st1{fill:#FFFFFF;}
</style>
<g id="Types_Steel" transform="translate(15 15)">
	<g id="Group">
		<g transform="matrix(1, 0, 0, 1, -15, -15)">
			
				<linearGradient id="Rectangle-2_1_" gradientUnits="userSpaceOnUse" x1="-261.5444" y1="426.3778" x2="-261.5444" y2="424.7111" gradientTransform="matrix(45 0 0 -45 11807 19187)">
				<stop  offset="0" style="stop-color:#52869D"/>
				<stop  offset="1" style="stop-color:#58A6AA"/>
			</linearGradient>
			<path id="Rectangle-2" class="st0" d="M37.5,0L37.5,0C58.2,0,75,16.8,75,37.5l0,0C75,58.2,58.2,75,37.5,75l0,0
				C16.8,75,0,58.2,0,37.5l0,0C0,16.8,16.8,0,37.5,0z"/>
		</g>
		<path id="Path_7" class="st1" d="M31.4,38.3H13.7c-0.3,0-0.6-0.2-0.8-0.5l-9-15.3c-0.2-0.3-0.2-0.6,0-0.9l9-15.3
			C13,6,13.3,5.8,13.7,5.8h17.8c0.3,0,0.6,0.2,0.8,0.5l8.9,15.3c0.2,0.3,0.2,0.6,0,0.9l-8.9,15.3C32.1,38.2,31.8,38.3,31.4,38.3z
			 M22.5,13.3c-4.8,0-8.8,3.9-8.8,8.8s3.9,8.8,8.8,8.8s8.8-3.9,8.8-8.8C31.2,17.3,27.3,13.3,22.5,13.3z"/>
	</g>
</g>
</svg>
