<?xml version="1.0" encoding="utf-8"?>
<svg version="1.1" xmlns="http://www.w3.org/2000/svg" xmlns:xlink="http://www.w3.org/1999/xlink" x="0px" y="0px"
	 viewBox="0 0 75 75" style="enable-background:new 0 0 75 75;" xml:space="preserve">
<g id="Types_Steel">
	<path id="Path_7" transform="translate(15 15)" fill="#fff" d="M31.4,38.3H13.7c-0.3,0-0.6-0.2-0.8-0.5l-9-15.3c-0.2-0.3-0.2-0.6,0-0.9l9-15.3
		C13,6,13.3,5.8,13.7,5.8h17.8c0.3,0,0.6,0.2,0.8,0.5l8.9,15.3c0.2,0.3,0.2,0.6,0,0.9l-8.9,15.3C32.1,38.2,31.8,38.3,31.4,38.3z
		M22.5,13.3c-4.8,0-8.8,3.9-8.8,8.8s3.9,8.8,8.8,8.8s8.8-3.9,8.8-8.8C31.2,17.3,27.3,13.3,22.5,13.3z"/>
</g>
</svg>
