<?xml version="1.0" encoding="utf-8"?>
<svg version="1.1" xmlns="http://www.w3.org/2000/svg" xmlns:xlink="http://www.w3.org/1999/xlink" x="0px" y="0px"
	 viewBox="0 0 75 75" style="enable-background:new 0 0 75 75;" xml:space="preserve">
<g id="Types_Water">
	<path id="Oval_5" transform="translate(15 15)" fill="#fff" d="M22.5,40.8c-6.9,0-12.5-5.6-12.5-12.5L21.4,4.6C21.7,4,22.4,3.7,23,4c0.3,0.1,0.5,0.3,0.6,0.6
		L35,28.4C35,35.3,29.4,40.8,22.5,40.8z M15.2,28.4c-0.1,1.2-0.1,2.5,0.3,3.7c0.6,2.4,2.5,4.3,5,4.7c0.7,0.2,1.5,0.2,2.3,0.2
		c3-0.1,5.8-1.4,7.7-3.7l0,0c-1.9,0.7-3.9,1.1-6,1.1c-1.1,0-2.2-0.1-3.3-0.5C18.5,33,16.3,31,15.2,28.4z"/>
</g>
</svg>
